<svg width="191" height="33" viewBox="0 0 191 33" fill="none" xmlns="http://www.w3.org/2000/svg">
<path d="M81.3032 16.5001C81.3032 11.358 85.1485 7.40967 90.3056 7.40967C93.6532 7.40967 96.5484 9.15429 97.9056 11.863L94.7389 13.7454C93.9699 12.1385 92.3413 11.0826 90.2604 11.0826C87.2746 11.0826 84.9675 13.3781 84.9675 16.5001C84.9675 19.622 87.2294 21.9176 90.2604 21.9176C92.2961 21.9176 93.9699 20.8616 94.7842 19.2547L97.9508 21.0912C96.5032 23.7999 93.608 25.5904 90.3056 25.5904C85.1485 25.5904 81.3032 21.5962 81.3032 16.5001Z" fill="#486DB7"/>
<path d="M98.177 16.5001C98.177 11.358 102.203 7.40967 107.179 7.40967C112.201 7.40967 116.182 11.358 116.182 16.5001C116.182 21.5962 112.201 25.5904 107.179 25.5904C102.203 25.5904 98.177 21.5962 98.177 16.5001ZM112.472 16.5001C112.472 13.3322 110.165 11.0366 107.179 11.0366C104.194 11.0366 101.887 13.3322 101.887 16.5001C101.887 19.6679 104.194 21.9635 107.179 21.9635C110.165 21.9635 112.472 19.622 112.472 16.5001Z" fill="#486DB7"/>
<path d="M133.598 14.5259V25.1313H129.889V14.8932C129.889 12.2763 128.396 10.8989 126.089 10.8989C123.691 10.8989 121.746 12.3681 121.746 15.8573V25.1313H118.082V7.82288C121.022 7.82288 121.746 8.69519 121.746 10.0266C122.877 8.23608 124.732 7.36377 127.039 7.36377C130.839 7.40968 133.598 10.0266 133.598 14.5259Z" fill="#486DB7"/>
<path d="M141.108 11.4498V19.7597C141.108 21.9635 142.556 21.9175 145.315 21.7798V25.1313C139.66 25.82 137.398 24.2131 137.398 19.7597V11.4498H134.639V7.82286H137.398V6.85873C137.398 4.51726 138.258 3.92042 139.977 3.32357L141.063 3.0022V7.82286H145.27V11.4039H141.108V11.4498Z" fill="#486DB7"/>
<path d="M146.446 2.86443C146.446 1.533 147.487 0.477051 148.798 0.477051C150.11 0.477051 151.151 1.533 151.151 2.86443C151.151 4.14993 150.11 5.2518 148.798 5.2518C147.532 5.2518 146.446 4.14993 146.446 2.86443ZM146.989 7.82282H150.653V25.0854H146.989V7.82282Z" fill="#486DB7"/>
<path d="M169.517 7.82289C168.432 7.82289 167.798 8.09836 167.436 8.51156C167.075 8.97067 166.984 9.61342 166.984 10.348C165.672 8.46565 163.682 7.31787 161.058 7.31787C156.263 7.31787 152.463 11.3121 152.463 16.2246C152.463 21.183 156.263 25.1314 161.058 25.1314C163.682 25.1314 165.672 23.9836 166.984 22.1012V24.3509C166.984 27.381 165.084 29.1256 161.917 29.1256C158.932 29.1256 157.71 27.9319 156.941 26.4628L154.272 29.1715C155.81 31.3753 158.479 32.523 161.827 32.523C166.306 32.523 170.603 29.952 170.603 24.3509V7.82289H169.517ZM161.601 21.7339C158.479 21.7339 156.172 19.4384 156.172 16.3164C156.172 13.1945 158.479 10.8989 161.601 10.8989C164.722 10.8989 167.029 13.1945 167.029 16.3164C167.029 19.4384 164.677 21.7339 161.601 21.7339Z" fill="#486DB7"/>
<path d="M172.503 16.5001C172.503 11.358 176.529 7.40967 181.506 7.40967C186.527 7.40967 190.508 11.358 190.508 16.5001C190.508 21.5962 186.527 25.5904 181.506 25.5904C176.529 25.5904 172.503 21.5962 172.503 16.5001ZM186.844 16.5001C186.844 13.3322 184.537 11.0366 181.551 11.0366C178.565 11.0366 176.258 13.3322 176.258 16.5001C176.258 19.6679 178.565 21.9635 181.551 21.9635C184.491 21.9635 186.844 19.622 186.844 16.5001Z" fill="#486DB7"/>
<path d="M78.815 14.8471V25.5444H75.1507V15.0767C75.1507 12.6434 73.8388 11.312 71.8483 11.312C69.6769 11.312 68.1388 12.7352 68.1388 15.8572V25.5444H64.4745V15.0767C64.4745 12.6434 63.2983 11.312 61.2626 11.312C59.1817 11.312 57.4626 12.7352 57.4626 15.8572V25.5444H53.7983V8.28186C56.3317 8.28186 57.4626 8.8328 57.4626 10.3479C58.5483 8.64915 60.2221 7.82275 62.3483 7.82275C64.565 7.82275 66.1936 8.8328 67.1888 10.5315C68.3198 8.74097 70.1293 7.82275 72.3912 7.82275C76.2364 7.82275 78.815 10.5315 78.815 14.8471Z" fill="#486DB7"/>
<path d="M47.9175 22.9276C47.9175 23.8917 47.6913 24.6263 47.2841 25.1313C46.7413 25.82 45.8818 26.0036 45.4294 26.0036C45.4294 26.0036 45.3841 26.0036 45.3389 26.0036H45.2937H45.2484C44.0722 26.0036 43.3032 24.9936 43.2579 24.9018L43.2127 24.8558C40.046 20.9993 32.1746 13.1485 28.4651 9.47564C28.5103 9.42973 28.5556 9.42973 28.6008 9.38382C28.7818 9.24609 28.9175 9.10836 29.0984 8.97062C29.2341 8.8788 29.3246 8.78698 29.4603 8.64924C29.596 8.55742 29.6865 8.4656 29.777 8.37378C29.8675 8.32787 29.9127 8.23604 30.0032 8.19013C31.3603 7.04236 32.6722 5.94049 33.577 5.20592C33.6675 5.11409 33.8032 5.02227 33.8937 4.93045C33.9841 4.83863 34.1198 4.74681 34.2103 4.65498C34.527 4.37952 34.7079 4.24178 34.7079 4.24178C34.7079 4.24178 36.5627 2.58899 38.9151 3.92041C39.2318 4.10405 39.5484 4.42543 39.9103 4.88454C39.9556 4.93045 40.0008 4.97636 40.046 5.06818L40.0913 5.11409C40.1818 5.20592 40.2722 5.34365 40.3627 5.48138C40.4532 5.61911 40.5437 5.75685 40.6341 5.89458C40.6794 5.9864 40.7246 6.03231 40.7698 6.12414C40.8151 6.17005 40.8603 6.21596 40.8603 6.30778C40.9056 6.3996 40.996 6.53734 41.0413 6.62916C41.0865 6.72098 41.1318 6.8128 41.177 6.90462C41.2222 6.95054 41.2222 6.99645 41.2675 7.04236C41.3579 7.18009 41.4032 7.31782 41.4937 7.45556C41.4937 7.50147 41.5389 7.50147 41.5389 7.54738C41.7651 7.96058 42.0365 8.41969 42.3079 8.92471C42.3532 9.01653 42.4437 9.15427 42.4889 9.24609C42.5341 9.33791 42.5794 9.47564 42.6698 9.56747C42.7603 9.75111 42.8508 9.93475 42.9413 10.1184C42.9413 10.1643 42.9865 10.2102 42.9865 10.2561C43.077 10.3939 43.1222 10.5775 43.2127 10.7612C43.4841 11.2662 43.7103 11.8171 43.9365 12.368C44.027 12.5976 44.1627 12.8271 44.2532 13.1026C44.6151 13.8831 44.9318 14.7095 45.2484 15.49C45.4294 15.9032 45.6103 16.3623 45.746 16.7755C45.8365 17.0051 45.927 17.1887 45.9722 17.4183C46.1532 17.8774 46.3341 18.3365 46.4698 18.7956C46.5603 19.0251 46.6056 19.2088 46.696 19.4383C46.7865 19.6679 46.8318 19.8515 46.9222 20.0811C47.0127 20.2647 47.0579 20.4943 47.1032 20.6779C47.1484 20.8616 47.2389 21.0911 47.2841 21.2748C47.3294 21.4125 47.3746 21.5503 47.4198 21.688C47.5556 22.0553 47.646 22.4685 47.7365 22.7898C47.827 22.6521 47.8722 22.7439 47.9175 22.9276Z" fill="#486DB7"/>
<path d="M47.0579 26.8769C46.6507 27.4737 46.3341 27.7492 46.3341 27.7492C46.3341 27.7492 44.9317 29.3561 42.4888 29.3561C42.4888 29.3561 40.8602 29.402 39.5936 28.5297C39.1412 28.2083 37.7841 27.336 35.8841 26.3259C34.8436 25.775 33.5769 25.1322 32.265 24.5813C32.2198 24.5813 32.2198 24.5354 32.1745 24.5354C30.8174 23.9386 29.415 23.3876 27.9674 22.9744C27.9674 22.9744 27.9222 22.9744 27.8769 22.9285C26.0222 22.3776 24.1222 22.0103 22.4031 22.0103C15.4364 22.0103 3.22215 29.0806 3.22215 29.0806C3.22215 29.0806 2.86024 29.3102 2.31739 29.3102C1.77453 29.3102 0.779291 29.0347 0.507862 27.7951C0.372148 27.2442 1.09596 25.3618 2.99596 22.2399C2.99596 22.2399 2.99596 22.1939 3.0412 22.1939C4.03643 20.5411 5.34834 18.567 7.02215 16.2255C9.32929 12.9658 12.315 9.10929 16.1602 4.5641C16.1602 4.5641 17.1102 3.41632 18.7841 3.41632C18.7841 3.41632 20.1412 3.3245 21.4079 4.38045C21.8602 4.74774 23.7602 6.58418 26.4745 9.20111C31.496 14.1136 39.2769 21.9644 42.2626 25.6832C42.2626 25.6832 43.3936 27.2901 45.2483 27.2901H45.3388C45.3841 27.2901 45.4745 27.2901 45.5198 27.2901C45.7912 27.2442 46.4245 27.1982 47.0579 26.8769Z" fill="#486DB7"/>
<path opacity="0.2" d="M47.9175 22.9276C47.9175 23.8917 47.6913 24.6263 47.2841 25.1313C46.7413 25.82 45.8818 26.0036 45.4294 26.0036C45.4294 26.0036 45.3841 26.0036 45.3389 26.0036H45.2937H45.2484C44.0722 26.0036 43.3032 24.9936 43.2579 24.9018L43.2127 24.8558C40.046 20.9993 32.1746 13.1485 28.4651 9.47564C28.5103 9.42973 28.5556 9.42973 28.6008 9.38382C28.7818 9.24609 28.9175 9.10836 29.0984 8.97062C29.2341 8.8788 29.3246 8.78698 29.4603 8.64924C29.596 8.55742 29.6865 8.4656 29.777 8.37378C32.2198 9.42973 37.2865 11.863 46.1079 17.2805C46.2889 17.7396 46.4698 18.1987 46.6056 18.6579C46.696 18.8874 46.7413 19.0711 46.8318 19.3006C46.9222 19.5302 46.9675 19.7138 47.0579 19.9434C47.1484 20.127 47.1937 20.3566 47.2389 20.5402C47.2841 20.7239 47.3746 20.9534 47.4198 21.137C47.4651 21.2748 47.5103 21.4125 47.5556 21.5503C47.6913 21.9175 47.7817 22.3307 47.8722 22.6521C47.827 22.6521 47.8722 22.7439 47.9175 22.9276Z" fill="#486DB7"/>
<path opacity="0.2" d="M27.8769 22.8816C26.0222 22.3307 24.1222 21.9634 22.4031 21.9634C15.4364 22.0093 3.22215 29.0796 3.22215 29.0796C3.22215 29.0796 2.86024 29.3091 2.31739 29.3091C1.77453 29.3091 0.779291 29.0337 0.507862 27.7941C0.372148 27.2432 1.09596 25.3608 2.99596 22.2388C2.99596 22.2388 2.99596 22.1929 3.0412 22.1929C13.6269 18.5201 26.746 22.5143 27.8769 22.8816Z" fill="#486DB7"/>
</svg>
